# xmcd
#
# Track frame offsets: 
#        150
#        15187
#        32550
#        44699
#        57176
#        66587
#        76838
#        91293
#        102406
#        113887
#        123150
#        135090
#        147939
#        158201
#        172563
#        186225
#        202935
#        213525
#        227175
#        242101
#        258264
#
# Disc length: 3619 seconds
#
# Revision: 0
# Processed by: cddbd v1.5.2PL0 Copyright (c) Steve Scherf et al.
# Submitted via: ExactAudioCopy v0.99pb3
#
DISCID=150e2115
DTITLE=Chet Atkins - Night Atlanta Burned - First Nashville Guitar Quar
DTITLE=tet
DYEAR=2007
DGENRE=Instrumental
TTITLE0=Sonora
TTITLE1=Mostly Mozart
TTITLE2=Bill Cheatham
TTITLE3=San Antonio Stroll
TTITLE4=To Ann
TTITLE5=The Niight Atlanta Burned
TTITLE6=Carnavalito
TTITLE7=Women of Ireland
TTITLE8=Scotland
TTITLE9=The Old Folks of Okracoke
TTITLE10=Carolina Shout
TTITLE11=Londonderry Air
TTITLE12=Love Song of Pepe Sanchez
TTITLE13=Skirts of Mexico
TTITLE14=You Needed Me
TTITLE15=Bound for Boston
TTITLE16=Washington Post March
TTITLE17=Someday My Prince Will Come
TTITLE18=Rings of Grass
TTITLE19=Rodrigo Concerto
TTITLE20=Brandenburg
EXTD=
EXTT0=
EXTT1=
EXTT2=
EXTT3=
EXTT4=
EXTT5=
EXTT6=
EXTT7=
EXTT8=
EXTT9=
EXTT10=
EXTT11=
EXTT12=
EXTT13=
EXTT14=
EXTT15=
EXTT16=
EXTT17=
EXTT18=
EXTT19=
EXTT20=
PLAYORDER=
